<?xml version="1.0" encoding="utf-8"?>
<!-- Generator: Adobe Illustrator 20.1.0, SVG Export Plug-In . SVG Version: 6.00 Build 0)  -->
<svg version="1.1" id="Layer_1" xmlns="http://www.w3.org/2000/svg" xmlns:xlink="http://www.w3.org/1999/xlink" x="0px" y="0px"
	 viewBox="0 0 230 132" style="enable-background:new 0 0 230 132;" xml:space="preserve">
<style type="text/css">
	.st0{fill-rule:evenodd;clip-rule:evenodd;}
</style>
<g>
	<path class="st0" d="M68,126.8c-3.7,0-6.8-3-6.8-6.8c0-8.4,0-16.9,0-25.3c-0.1-4.3,1.9-6.5,5.1-7.4c7-2.4,13.7-3.6,19.6-8.1
		c0.4-0.3,0.9,0,1.1,0.4l13.1,30.2c0.6-4.4,1.4-8.7,2.1-11.7c0.1-0.5,0.3-1-0.1-1.4c-0.4-0.5-1.3-1.1-1.8-1.6
		c-0.4-0.3-0.4-0.6-0.4-1c-0.2-1.9,0.2-6.7,2-6.6c2.8,0.6,5.2,0.6,8,0c1.7-0.1,2.2,4.7,2,6.6c-0.1,0.4-0.1,0.6-0.4,1
		c-0.5,0.4-1.4,1.1-1.8,1.6c-0.4,0.4-0.2,1-0.1,1.4c0.6,3,1.4,7.4,2.1,11.7l13.1-30.2c0.2-0.4,0.7-0.7,1.1-0.4
		c5.9,4.5,12.6,5.7,19.6,8.1c3.2,0.9,5.2,3.1,5.1,7.4c0,8.4,0,16.9,0,25.3c0,3.7-3.1,6.8-6.8,6.8H68L68,126.8z M112.5,66.6
		c1.3-0.4,2.1,0.4,1.9,1.6c-0.5,2.4-2,4.1-4,5.2c-2.7,1.4-6.1,1.4-8.8,0c-1.9-1-3.5-2.7-4-5.2c-0.2-1.2,0.6-2,1.9-1.6
		C103.3,67.7,108.6,67.7,112.5,66.6L112.5,66.6z M109.6,71.4c1.1-0.6,2-1.4,2.5-2.6c-3.8,0.9-8.5,0.9-12.3,0c0.5,1.1,1.4,2,2.5,2.6
		C104.5,72.5,107.4,72.5,109.6,71.4L109.6,71.4z M115.5,49.4c1.5,0,3,1,3,2.6c0,1.6-1.5,2.6-3,2.6c-1.5,0-3-1-3-2.6
		C112.5,50.4,114.1,49.4,115.5,49.4L115.5,49.4z M111.1,46c-0.6,0.3-0.9,1-0.7,1.7c0.3,0.6,1,0.9,1.7,0.7c1-0.4,2.2-0.5,3.4-0.5
		c1.5,0,3,0.3,4.5,0.6c0.7,0.1,1.4-0.3,1.5-1c0.1-0.7-0.3-1.4-1-1.5c-1.6-0.3-3.3-0.6-4.9-0.6C114,45.3,112.5,45.4,111.1,46
		L111.1,46z M108.1,60c0.4-0.1,0.9,0.1,1,0.5c0.1,0.4-0.1,0.9-0.5,1c-1.8,0.6-3.5,0.6-5.4,0c-0.4-0.1-0.7-0.6-0.5-1
		c0.1-0.4,0.6-0.7,1-0.5C105.3,60.4,106.7,60.4,108.1,60L108.1,60z M113.1,83.6c8.6-3.7,13.4-11.3,15.6-20.1c3.6-2.1,5-8.4,5.4-12
		c0.3-3.1,0.3-8.6-1.9-11.5c0-0.6,0.1-1.1,0.1-1.7c0-17.3-13.2-26-26.3-26c-13.2,0-26.3,8.7-26.3,26c0,0.6,0,1.1,0.1,1.7
		c-2.3,3-2.3,8.4-1.9,11.5c0.4,3.6,1.7,9.9,5.4,12c2.2,8.7,7,16.4,15.6,20.1C103.3,85.5,108.6,85.5,113.1,83.6L113.1,83.6z
		 M120.1,35.6c0.5-0.2,0.9-0.3,1.4,0.1c1.4,1.4,2.2,4.7,2.4,7.7c0.2,1.9,1.3,1.9,1.8,1c0.7-1.5,1.6-2.5,2.4-2.5
		c1.7,0,2.7,4.1,2.1,9.2c-0.5,5.1-2.4,9.2-4.1,9.2c-0.4,0-0.7,0.2-0.8,0.7c-2,9.3-6.6,15.9-13.7,19c-3.5,1.5-7.7,1.5-11.2,0
		c-7.1-3-11.7-9.7-13.7-19c-0.1-0.5-0.4-0.7-0.8-0.7c-1.7,0-3.6-4.1-4.1-9.2c-0.5-5.1,0.4-9.2,2.1-9.2c0.8,0,1.7,1,2.4,2.5
		c0.5,0.9,1.6,0.9,1.8-1c0.3-3,1-6.3,2.4-7.7c0.5-0.5,0.8-0.4,1.4-0.1C95.1,37.2,116.9,37.2,120.1,35.6L120.1,35.6z M96.4,49.4
		c-1.5,0-3,1-3,2.6c0,1.6,1.5,2.6,3,2.6c1.5,0,3-1,3-2.6C99.4,50.4,97.9,49.4,96.4,49.4L96.4,49.4z M100.9,46c0.6,0.3,0.9,1,0.7,1.7
		c-0.3,0.6-1,0.9-1.7,0.7c-1-0.4-2.2-0.5-3.4-0.5c-1.5,0-3,0.3-4.5,0.6c-0.7,0.1-1.4-0.3-1.5-1c-0.1-0.7,0.3-1.4,1-1.5
		c1.6-0.3,3.3-0.6,4.9-0.6C97.9,45.3,99.5,45.4,100.9,46L100.9,46z"/>
</g>
</svg>
